<mxfile host="app.diagrams.net" agent="Mozilla/5.0 (Macintosh; Intel Mac OS X 10_15_7) AppleWebKit/537.36 (KHTML, like Gecko) Chrome/129.0.0.0 Safari/537.36" version="24.7.17">
  <diagram name="Page-1" id="1TPipeEXBkHsY47AQX3W">
    <mxGraphModel dx="1218" dy="921" grid="1" gridSize="10" guides="1" tooltips="1" connect="1" arrows="1" fold="1" page="1" pageScale="1" pageWidth="827" pageHeight="1169" math="0" shadow="0">
      <root>
        <mxCell id="0" />
        <mxCell id="1" parent="0" />
        <mxCell id="heXIOsVvue35nN5C5-do-51" value="" style="group;fillColor=#dae8fc;strokeColor=#6c8ebf;" vertex="1" connectable="0" parent="1">
          <mxGeometry x="340" y="310" width="160" height="60" as="geometry" />
        </mxCell>
        <mxCell id="heXIOsVvue35nN5C5-do-6" value="OPS-I Frontend&lt;div&gt;(React/Dash)&lt;/div&gt;" style="rounded=0;whiteSpace=wrap;html=1;" vertex="1" parent="heXIOsVvue35nN5C5-do-51">
          <mxGeometry width="160" height="60" as="geometry" />
        </mxCell>
        <mxCell id="heXIOsVvue35nN5C5-do-50" value="" style="image;aspect=fixed;html=1;points=[];align=center;fontSize=12;image=img/lib/azure2/other/Azure_Monitor_Dashboard.svg;" vertex="1" parent="heXIOsVvue35nN5C5-do-51">
          <mxGeometry x="9.600000000000037" y="10" width="13.7728" height="12.8" as="geometry" />
        </mxCell>
        <mxCell id="heXIOsVvue35nN5C5-do-57" value="" style="group;fillColor=#f5f5f5;fontColor=#333333;strokeColor=#666666;" vertex="1" connectable="0" parent="1">
          <mxGeometry x="360" y="425" width="120" height="160" as="geometry" />
        </mxCell>
        <mxCell id="heXIOsVvue35nN5C5-do-55" value="" style="group" vertex="1" connectable="0" parent="heXIOsVvue35nN5C5-do-57">
          <mxGeometry width="120" height="120" as="geometry" />
        </mxCell>
        <mxCell id="heXIOsVvue35nN5C5-do-53" value="" style="shape=cube;whiteSpace=wrap;html=1;boundedLbl=1;backgroundOutline=1;darkOpacity=0.05;darkOpacity2=0.1;" vertex="1" parent="heXIOsVvue35nN5C5-do-55">
          <mxGeometry width="120" height="120" as="geometry" />
        </mxCell>
        <mxCell id="heXIOsVvue35nN5C5-do-38" value="" style="aspect=fixed;sketch=0;html=1;dashed=0;whitespace=wrap;verticalLabelPosition=bottom;verticalAlign=top;fillColor=#2875E2;strokeColor=#ffffff;points=[[0.005,0.63,0],[0.1,0.2,0],[0.9,0.2,0],[0.5,0,0],[0.995,0.63,0],[0.72,0.99,0],[0.5,1,0],[0.28,0.99,0]];shape=mxgraph.kubernetes.icon2;prIcon=api" vertex="1" parent="heXIOsVvue35nN5C5-do-55">
          <mxGeometry x="40" y="40" width="60" height="57.6" as="geometry" />
        </mxCell>
        <mxCell id="heXIOsVvue35nN5C5-do-56" value="API Service&lt;div&gt;(Flask/FastAPI)&lt;/div&gt;" style="text;html=1;align=center;verticalAlign=middle;whiteSpace=wrap;rounded=0;" vertex="1" parent="heXIOsVvue35nN5C5-do-57">
          <mxGeometry x="30" y="130" width="60" height="30" as="geometry" />
        </mxCell>
        <mxCell id="heXIOsVvue35nN5C5-do-58" value="" style="group;fillColor=#f5f5f5;fontColor=#333333;strokeColor=#666666;" vertex="1" connectable="0" parent="1">
          <mxGeometry x="360" y="640" width="120" height="154" as="geometry" />
        </mxCell>
        <mxCell id="heXIOsVvue35nN5C5-do-35" value="AWS SageMaker" style="text;html=1;align=center;verticalAlign=middle;whiteSpace=wrap;rounded=0;" vertex="1" parent="heXIOsVvue35nN5C5-do-58">
          <mxGeometry x="39" y="124" width="60" height="30" as="geometry" />
        </mxCell>
        <mxCell id="heXIOsVvue35nN5C5-do-41" value="" style="group" vertex="1" connectable="0" parent="heXIOsVvue35nN5C5-do-58">
          <mxGeometry width="120" height="120" as="geometry" />
        </mxCell>
        <mxCell id="heXIOsVvue35nN5C5-do-40" value="" style="shape=cube;whiteSpace=wrap;html=1;boundedLbl=1;backgroundOutline=1;darkOpacity=0.05;darkOpacity2=0.1;" vertex="1" parent="heXIOsVvue35nN5C5-do-41">
          <mxGeometry width="120" height="120" as="geometry" />
        </mxCell>
        <mxCell id="heXIOsVvue35nN5C5-do-34" value="" style="sketch=0;points=[[0,0,0],[0.25,0,0],[0.5,0,0],[0.75,0,0],[1,0,0],[0,1,0],[0.25,1,0],[0.5,1,0],[0.75,1,0],[1,1,0],[0,0.25,0],[0,0.5,0],[0,0.75,0],[1,0.25,0],[1,0.5,0],[1,0.75,0]];outlineConnect=0;fontColor=#232F3E;fillColor=#01A88D;strokeColor=#ffffff;dashed=0;verticalLabelPosition=bottom;verticalAlign=top;align=center;html=1;fontSize=12;fontStyle=0;aspect=fixed;shape=mxgraph.aws4.resourceIcon;resIcon=mxgraph.aws4.sagemaker_ground_truth;" vertex="1" parent="heXIOsVvue35nN5C5-do-41">
          <mxGeometry x="34" y="33" width="70" height="70" as="geometry" />
        </mxCell>
        <mxCell id="heXIOsVvue35nN5C5-do-59" value="" style="group;fillColor=#f5f5f5;fontColor=#333333;strokeColor=#666666;" vertex="1" connectable="0" parent="1">
          <mxGeometry x="160" y="420" width="120" height="160" as="geometry" />
        </mxCell>
        <mxCell id="heXIOsVvue35nN5C5-do-11" value="" style="shape=cube;whiteSpace=wrap;html=1;boundedLbl=1;backgroundOutline=1;darkOpacity=0.05;darkOpacity2=0.1;" vertex="1" parent="heXIOsVvue35nN5C5-do-59">
          <mxGeometry width="120" height="120" as="geometry" />
        </mxCell>
        <mxCell id="heXIOsVvue35nN5C5-do-32" value="" style="sketch=0;outlineConnect=0;fontColor=#232F3E;gradientColor=none;fillColor=#ED7100;strokeColor=none;dashed=0;verticalLabelPosition=bottom;verticalAlign=top;align=center;html=1;fontSize=12;fontStyle=0;aspect=fixed;pointerEvents=1;shape=mxgraph.aws4.instance_with_cloudwatch2;" vertex="1" parent="heXIOsVvue35nN5C5-do-59">
          <mxGeometry x="29" y="27" width="78" height="78" as="geometry" />
        </mxCell>
        <mxCell id="heXIOsVvue35nN5C5-do-33" value="AWS CloudWatch/Datadog" style="text;html=1;align=center;verticalAlign=middle;whiteSpace=wrap;rounded=0;" vertex="1" parent="heXIOsVvue35nN5C5-do-59">
          <mxGeometry x="38" y="130" width="60" height="30" as="geometry" />
        </mxCell>
        <mxCell id="heXIOsVvue35nN5C5-do-60" value="" style="group" vertex="1" connectable="0" parent="1">
          <mxGeometry x="560" y="420" width="120" height="160" as="geometry" />
        </mxCell>
        <mxCell id="heXIOsVvue35nN5C5-do-37" value="AWS Autoscaling/Bedrock" style="text;html=1;align=center;verticalAlign=middle;whiteSpace=wrap;rounded=0;" vertex="1" parent="heXIOsVvue35nN5C5-do-60">
          <mxGeometry x="40" y="130" width="60" height="30" as="geometry" />
        </mxCell>
        <mxCell id="heXIOsVvue35nN5C5-do-43" value="" style="group" vertex="1" connectable="0" parent="heXIOsVvue35nN5C5-do-60">
          <mxGeometry width="120" height="120" as="geometry" />
        </mxCell>
        <mxCell id="heXIOsVvue35nN5C5-do-42" value="" style="shape=cube;whiteSpace=wrap;html=1;boundedLbl=1;backgroundOutline=1;darkOpacity=0.05;darkOpacity2=0.1;fillColor=#f5f5f5;fontColor=#333333;strokeColor=#666666;" vertex="1" parent="heXIOsVvue35nN5C5-do-43">
          <mxGeometry width="120" height="120" as="geometry" />
        </mxCell>
        <mxCell id="heXIOsVvue35nN5C5-do-36" value="" style="sketch=0;outlineConnect=0;fontColor=#232F3E;gradientColor=none;fillColor=#ED7100;strokeColor=none;dashed=0;verticalLabelPosition=bottom;verticalAlign=top;align=center;html=1;fontSize=12;fontStyle=0;aspect=fixed;pointerEvents=1;shape=mxgraph.aws4.auto_scaling2;" vertex="1" parent="heXIOsVvue35nN5C5-do-43">
          <mxGeometry x="39" y="37" width="68" height="68" as="geometry" />
        </mxCell>
        <mxCell id="heXIOsVvue35nN5C5-do-61" value="" style="shape=cube;whiteSpace=wrap;html=1;boundedLbl=1;backgroundOutline=1;darkOpacity=0.05;darkOpacity2=0.1;fillColor=#d5e8d4;strokeColor=#82b366;" vertex="1" parent="1">
          <mxGeometry x="160" y="830" width="520" height="120" as="geometry" />
        </mxCell>
        <mxCell id="heXIOsVvue35nN5C5-do-64" value="" style="group" vertex="1" connectable="0" parent="1">
          <mxGeometry x="230" y="860" width="60" height="80" as="geometry" />
        </mxCell>
        <mxCell id="heXIOsVvue35nN5C5-do-62" value="" style="shape=cylinder3;whiteSpace=wrap;html=1;boundedLbl=1;backgroundOutline=1;size=15;" vertex="1" parent="heXIOsVvue35nN5C5-do-64">
          <mxGeometry width="60" height="80" as="geometry" />
        </mxCell>
        <mxCell id="heXIOsVvue35nN5C5-do-63" value="" style="dashed=0;outlineConnect=0;html=1;align=center;labelPosition=center;verticalLabelPosition=bottom;verticalAlign=top;shape=mxgraph.weblogos.mongodb" vertex="1" parent="heXIOsVvue35nN5C5-do-64">
          <mxGeometry x="22.03" y="40" width="15.93" height="33.33" as="geometry" />
        </mxCell>
        <mxCell id="heXIOsVvue35nN5C5-do-65" value="" style="group" vertex="1" connectable="0" parent="1">
          <mxGeometry x="400" y="860" width="60" height="80" as="geometry" />
        </mxCell>
        <mxCell id="heXIOsVvue35nN5C5-do-66" value="" style="shape=cylinder3;whiteSpace=wrap;html=1;boundedLbl=1;backgroundOutline=1;size=15;" vertex="1" parent="heXIOsVvue35nN5C5-do-65">
          <mxGeometry width="60" height="80" as="geometry" />
        </mxCell>
        <mxCell id="heXIOsVvue35nN5C5-do-67" value="" style="dashed=0;outlineConnect=0;html=1;align=center;labelPosition=center;verticalLabelPosition=bottom;verticalAlign=top;shape=mxgraph.weblogos.mongodb" vertex="1" parent="heXIOsVvue35nN5C5-do-65">
          <mxGeometry x="22.03" y="40" width="15.93" height="33.33" as="geometry" />
        </mxCell>
        <mxCell id="heXIOsVvue35nN5C5-do-68" value="" style="group" vertex="1" connectable="0" parent="1">
          <mxGeometry x="570" y="860" width="60" height="80" as="geometry" />
        </mxCell>
        <mxCell id="heXIOsVvue35nN5C5-do-69" value="" style="shape=cylinder3;whiteSpace=wrap;html=1;boundedLbl=1;backgroundOutline=1;size=15;" vertex="1" parent="heXIOsVvue35nN5C5-do-68">
          <mxGeometry width="60" height="80" as="geometry" />
        </mxCell>
        <mxCell id="heXIOsVvue35nN5C5-do-70" value="" style="dashed=0;outlineConnect=0;html=1;align=center;labelPosition=center;verticalLabelPosition=bottom;verticalAlign=top;shape=mxgraph.weblogos.mongodb" vertex="1" parent="heXIOsVvue35nN5C5-do-68">
          <mxGeometry x="22.03" y="40" width="15.93" height="33.33" as="geometry" />
        </mxCell>
        <mxCell id="heXIOsVvue35nN5C5-do-71" value="Database Cluster&lt;div&gt;(MongoDB)&lt;/div&gt;" style="text;html=1;align=center;verticalAlign=middle;whiteSpace=wrap;rounded=0;" vertex="1" parent="1">
          <mxGeometry x="320" y="960" width="230" height="30" as="geometry" />
        </mxCell>
        <mxCell id="heXIOsVvue35nN5C5-do-72" value="" style="endArrow=classic;startArrow=classic;html=1;rounded=0;entryX=0.5;entryY=1;entryDx=0;entryDy=0;" edge="1" parent="1" target="heXIOsVvue35nN5C5-do-37">
          <mxGeometry width="50" height="50" relative="1" as="geometry">
            <mxPoint x="630" y="827" as="sourcePoint" />
            <mxPoint x="670" y="692" as="targetPoint" />
          </mxGeometry>
        </mxCell>
        <mxCell id="heXIOsVvue35nN5C5-do-73" value="" style="endArrow=classic;startArrow=classic;html=1;rounded=0;entryX=0.426;entryY=1.052;entryDx=0;entryDy=0;exitX=0.12;exitY=-0.029;exitDx=0;exitDy=0;exitPerimeter=0;entryPerimeter=0;" edge="1" parent="1" source="heXIOsVvue35nN5C5-do-61" target="heXIOsVvue35nN5C5-do-33">
          <mxGeometry width="50" height="50" relative="1" as="geometry">
            <mxPoint x="190" y="742" as="sourcePoint" />
            <mxPoint x="240" y="692" as="targetPoint" />
          </mxGeometry>
        </mxCell>
        <mxCell id="heXIOsVvue35nN5C5-do-74" value="" style="endArrow=classic;startArrow=classic;html=1;rounded=0;entryX=0.503;entryY=0.935;entryDx=0;entryDy=0;entryPerimeter=0;" edge="1" parent="1" target="heXIOsVvue35nN5C5-do-35">
          <mxGeometry width="50" height="50" relative="1" as="geometry">
            <mxPoint x="430" y="829" as="sourcePoint" />
            <mxPoint x="430" y="794" as="targetPoint" />
          </mxGeometry>
        </mxCell>
        <mxCell id="heXIOsVvue35nN5C5-do-77" value="" style="edgeStyle=orthogonalEdgeStyle;rounded=0;orthogonalLoop=1;jettySize=auto;html=1;entryX=0.5;entryY=1;entryDx=0;entryDy=0;" edge="1" parent="1" source="heXIOsVvue35nN5C5-do-6" target="heXIOsVvue35nN5C5-do-47">
          <mxGeometry relative="1" as="geometry" />
        </mxCell>
        <mxCell id="heXIOsVvue35nN5C5-do-78" value="" style="endArrow=classic;startArrow=classic;html=1;rounded=0;entryX=-0.005;entryY=0.457;entryDx=0;entryDy=0;entryPerimeter=0;" edge="1" parent="1" target="heXIOsVvue35nN5C5-do-53">
          <mxGeometry width="50" height="50" relative="1" as="geometry">
            <mxPoint x="281" y="480" as="sourcePoint" />
            <mxPoint x="520" y="470" as="targetPoint" />
          </mxGeometry>
        </mxCell>
        <mxCell id="heXIOsVvue35nN5C5-do-79" value="" style="endArrow=classic;startArrow=classic;html=1;rounded=0;entryX=0;entryY=0.5;entryDx=0;entryDy=0;entryPerimeter=0;" edge="1" parent="1" target="heXIOsVvue35nN5C5-do-42">
          <mxGeometry width="50" height="50" relative="1" as="geometry">
            <mxPoint x="480" y="480" as="sourcePoint" />
            <mxPoint x="640" y="470" as="targetPoint" />
          </mxGeometry>
        </mxCell>
        <mxCell id="heXIOsVvue35nN5C5-do-80" value="" style="endArrow=classic;startArrow=classic;html=1;rounded=0;exitX=0.498;exitY=-0.011;exitDx=0;exitDy=0;exitPerimeter=0;entryX=0.5;entryY=1;entryDx=0;entryDy=0;" edge="1" parent="1" source="heXIOsVvue35nN5C5-do-40" target="heXIOsVvue35nN5C5-do-56">
          <mxGeometry width="50" height="50" relative="1" as="geometry">
            <mxPoint x="410" y="600" as="sourcePoint" />
            <mxPoint x="460" y="550" as="targetPoint" />
          </mxGeometry>
        </mxCell>
        <mxCell id="heXIOsVvue35nN5C5-do-81" value="" style="endArrow=classic;startArrow=classic;html=1;rounded=0;entryX=0.5;entryY=1;entryDx=0;entryDy=0;exitX=0.5;exitY=-0.001;exitDx=0;exitDy=0;exitPerimeter=0;" edge="1" parent="1" source="heXIOsVvue35nN5C5-do-53" target="heXIOsVvue35nN5C5-do-6">
          <mxGeometry width="50" height="50" relative="1" as="geometry">
            <mxPoint x="420" y="420" as="sourcePoint" />
            <mxPoint x="450" y="610" as="targetPoint" />
          </mxGeometry>
        </mxCell>
        <mxCell id="heXIOsVvue35nN5C5-do-47" value="" style="rounded=1;whiteSpace=wrap;html=1;fillColor=#dae8fc;strokeColor=#6c8ebf;" vertex="1" parent="1">
          <mxGeometry x="165" y="180" width="510" height="60" as="geometry" />
        </mxCell>
        <mxCell id="heXIOsVvue35nN5C5-do-48" value="OPS-I&lt;div&gt;(Operations Intelligence Service)&lt;/div&gt;" style="text;html=1;align=center;verticalAlign=middle;whiteSpace=wrap;rounded=0;" vertex="1" parent="1">
          <mxGeometry x="350" y="195" width="140" height="30" as="geometry" />
        </mxCell>
      </root>
    </mxGraphModel>
  </diagram>
</mxfile>
